# Blender 4.2.3 LTS
# www.blender.org
mtllib cilindro.mtl
o Cylinder
v 0.008166 -2.492230 -1.984193
v 0.008166 2.498745 -1.984193
v 1.445844 -2.492230 -1.405428
v 1.445844 2.498745 -1.405428
v 2.041350 -2.492230 -0.008166
v 2.041350 2.498745 -0.008166
v 1.445844 -2.492230 1.389097
v 1.445844 2.498745 1.389097
v 0.008166 -2.492230 1.967862
v 0.008166 2.498745 1.967862
v -1.429513 -2.492230 1.389097
v -1.429513 2.498745 1.389097
v -2.025019 -2.492230 -0.008166
v -2.025019 2.498745 -0.008166
v -1.429513 -2.492230 -1.405428
v -1.429513 2.498745 -1.405428
vn 0.3734 -0.0000 -0.9277
vn 0.9199 -0.0000 -0.3921
vn 0.9199 -0.0000 0.3921
vn 0.3734 -0.0000 0.9277
vn -0.3734 -0.0000 0.9277
vn -0.9199 -0.0000 0.3921
vn -0.0000 1.0000 -0.0000
vn -0.9199 -0.0000 -0.3921
vn -0.3734 -0.0000 -0.9277
vn -0.0000 -1.0000 -0.0000
vt 0.390163 0.537155
vt 0.390163 0.923782
vt 0.202024 0.923782
vt 0.202024 0.537155
vt 0.578165 0.542743
vt 0.578165 0.918194
vt 0.390586 0.918194
vt 0.390586 0.542743
vt 0.389844 0.539062
vt 0.389844 0.919531
vt 0.200781 0.921875
vt 0.200781 0.540625
vt 0.580777 0.538421
vt 0.579996 0.920954
vt 0.391098 0.920954
vt 0.387192 0.539203
vt 0.387500 0.544531
vt 0.387500 0.920313
vt 0.201563 0.920313
vt 0.198438 0.540625
vt 0.578906 0.535937
vt 0.578906 0.918750
vt 0.392969 0.921875
vt 0.389844 0.539844
vt 0.522831 0.403299
vt 0.389062 0.538437
vt 0.195138 0.536112
vt 0.064688 0.407812
vt 0.064669 0.213107
vt 0.197656 0.080313
vt 0.389237 0.080294
vt 0.521250 0.214062
vt 0.388281 0.544531
vt 0.385156 0.920313
vt 0.201562 0.922656
vt 0.200781 0.542969
vt 0.580469 0.537500
vt 0.578906 0.920313
vt 0.389844 0.921094
vt 0.389063 0.538281
vt 0.391406 0.536094
vt 0.522831 0.401737
vt 0.522812 0.214062
vt 0.395487 0.080294
vt 0.197656 0.080313
vt 0.063107 0.209982
vt 0.063906 0.406250
vt 0.195919 0.535331
s 0
usemtl Material.001
f 1/1/1 2/2/1 4/3/1 3/4/1
f 3/5/2 4/6/2 6/7/2 5/8/2
f 5/9/3 6/10/3 8/11/3 7/12/3
f 7/13/4 8/14/4 10/15/4 9/16/4
f 9/17/5 10/18/5 12/19/5 11/20/5
f 11/21/6 12/22/6 14/23/6 13/24/6
f 4/25/7 2/26/7 16/27/7 14/28/7 12/29/7 10/30/7 8/31/7 6/32/7
f 13/33/8 14/34/8 16/35/8 15/36/8
f 15/37/9 16/38/9 2/39/9 1/40/9
f 1/41/10 3/42/10 5/43/10 7/44/10 9/45/10 11/46/10 13/47/10 15/48/10
